<svg xmlns="http://www.w3.org/2000/svg" xmlns:xlink="http://www.w3.org/1999/xlink" version="1.1" data-diagram-type="DESCRIPTION" style="width:417px;height:667px;background:#FFFFFF;" width="417px" height="667px" viewBox="0 0 417 667" zoomAndPan="magnify" preserveAspectRatio="none" contentStyleType="text/css"><?plantuml 1.2026.7beta3?><defs/><g><g class="title" data-source-line="16"><text x="83.2818" y="22.9951" fill="#000000" font-size="14" lengthAdjust="spacing" textLength="243.6465" font-weight="700" font-family="Arial">UPPMS — Project Management</text></g><!--cluster UPPMS--><g class="cluster" data-qualified-name="UPPMS" id="ent0005" data-source-line="23"><rect x="176" y="44.2969" width="227.21" height="609" fill="none" style="stroke:#181818;stroke-width:1;" rx="2.5" ry="2.5"/><text x="261.6529" y="59.292" fill="#000000" font-size="14" lengthAdjust="spacing" textLength="55.9043" font-weight="700" font-family="Arial">UPPMS</text></g><!--entity UC19--><g class="entity" data-qualified-name="UPPMS.UC19" id="ent0006" data-source-line="24"><ellipse cx="289.6019" cy="473.2993" rx="81.0619" ry="18.6124" fill="#EEF4FF" style="stroke:#1D4ED8;stroke-width:0.5;"/><text x="221.3201" y="477.3657" fill="#000000" font-size="13" lengthAdjust="spacing" textLength="136.5635" font-family="Arial">UC-19 Create Project</text></g><!--entity UC20--><g class="entity" data-qualified-name="UPPMS.UC20" id="ent0007" data-source-line="25"><ellipse cx="289.5957" cy="323.292" rx="75.0257" ry="17.4051" fill="#EEF4FF" style="stroke:#1D4ED8;stroke-width:0.5;"/><text x="228.3059" y="327.3584" fill="#000000" font-size="13" lengthAdjust="spacing" textLength="122.5796" font-family="Arial">UC-20 List Projects</text></g><!--entity UC21--><g class="entity" data-qualified-name="UPPMS.UC21" id="ent0008" data-source-line="26"><ellipse cx="289.6029" cy="397.2975" rx="97.6029" ry="21.9206" fill="#EEF4FF" style="stroke:#1D4ED8;stroke-width:0.5;"/><text x="202.8939" y="401.3639" fill="#000000" font-size="13" lengthAdjust="spacing" textLength="173.418" font-family="Arial">UC-21 View Project Details</text></g><!--entity UC22--><g class="entity" data-qualified-name="UPPMS.UC22" id="ent0009" data-source-line="27"><ellipse cx="289.6008" cy="546.295" rx="82.6408" ry="18.9282" fill="#EEF4FF" style="stroke:#1D4ED8;stroke-width:0.5;"/><text x="219.5195" y="550.3614" fill="#000000" font-size="13" lengthAdjust="spacing" textLength="140.1626" font-family="Arial">UC-22 Update Project</text></g><!--entity UC23--><g class="entity" data-qualified-name="UPPMS.UC23" id="ent0010" data-source-line="28"><ellipse cx="289.5962" cy="618.2921" rx="80.7262" ry="18.5452" fill="#EEF4FF" style="stroke:#1D4ED8;stroke-width:0.5;"/><text x="221.6985" y="622.3585" fill="#000000" font-size="13" lengthAdjust="spacing" textLength="135.7954" font-family="Arial">UC-23 Delete Project</text></g><!--entity UC24--><g class="entity" data-qualified-name="UPPMS.UC24" id="ent0011" data-source-line="29"><ellipse cx="289.5987" cy="252.2966" rx="80.5987" ry="18.5197" fill="#EEF4FF" style="stroke:#1D4ED8;stroke-width:0.5;"/><text x="221.847" y="256.363" fill="#000000" font-size="13" lengthAdjust="spacing" textLength="135.5034" font-family="Arial">UC-24 View Progress</text></g><!--entity UC25--><g class="entity" data-qualified-name="UPPMS.UC25" id="ent0012" data-source-line="30"><ellipse cx="289.6039" cy="177.3017" rx="93.2739" ry="21.0548" fill="#EEF4FF" style="stroke:#1D4ED8;stroke-width:0.5;"/><text x="207.6398" y="181.3681" fill="#000000" font-size="13" lengthAdjust="spacing" textLength="163.9282" font-family="Arial">UC-25 View Activity Feed</text></g><!--entity UC26--><g class="entity" data-qualified-name="UPPMS.UC26" id="ent0013" data-source-line="31"><ellipse cx="289.6032" cy="100.2935" rx="92.8332" ry="20.9666" fill="#EEF4FF" style="stroke:#1D4ED8;stroke-width:0.5;"/><text x="208.1247" y="104.3599" fill="#000000" font-size="13" lengthAdjust="spacing" textLength="162.957" font-family="Arial">UC-26 Leave Supervision</text></g><!--entity Student--><g class="entity" data-qualified-name="Student" id="ent0001" data-source-line="18"><ellipse cx="69.0019" cy="302.7269" rx="16" ry="16" fill="#F1F1F1" style="stroke:#181818;stroke-width:0.5;"/><path d="M69.0019,322.7269 C73.0019,322.7269 76.0019,322.7269 80.0019,318.7269 C88.0019,318.7269 96.0019,326.7269 96.0019,334.7269 L96.0019,338.7269 C96.0019,342.7269 92.0019,346.7269 88.0019,346.7269 L50.0019,346.7269 C46.0019,346.7269 42.0019,342.7269 42.0019,338.7269 L42.0019,334.7269 C42.0019,326.7269 50.0019,318.7269 58.0019,318.7269 C62.0019,322.7269 65.0019,322.7269 69.0019,322.7269" style="stroke:#181818;stroke-width:0.5;" fill="#F1F1F1"/><text x="39.79" y="359.2938" fill="#000000" font-size="13" lengthAdjust="spacing" textLength="58.4238" font-weight="700" font-family="Arial">Student</text></g><!--entity Supervisor--><g class="entity" data-qualified-name="Supervisor" id="ent0002" data-source-line="19"><ellipse cx="69.0008" cy="191.7269" rx="16" ry="16" fill="#F1F1F1" style="stroke:#181818;stroke-width:0.5;"/><path d="M69.0008,211.7269 C73.0008,211.7269 76.0008,211.7269 80.0008,207.7269 C88.0008,207.7269 96.0008,215.7269 96.0008,223.7269 L96.0008,227.7269 C96.0008,231.7269 92.0008,235.7269 88.0008,235.7269 L50.0008,235.7269 C46.0008,235.7269 42.0008,231.7269 42.0008,227.7269 L42.0008,223.7269 C42.0008,215.7269 50.0008,207.7269 58.0008,207.7269 C62.0008,211.7269 65.0008,211.7269 69.0008,211.7269" style="stroke:#181818;stroke-width:0.5;" fill="#F1F1F1"/><text x="29.42" y="248.2938" fill="#000000" font-size="13" lengthAdjust="spacing" textLength="79.1616" font-weight="700" font-family="Arial">Supervisor</text></g><!--entity Admin--><g class="entity" data-qualified-name="Admin" id="ent0003" data-source-line="20"><ellipse cx="69.0005" cy="413.7269" rx="16" ry="16" fill="#F1F1F1" style="stroke:#181818;stroke-width:0.5;"/><path d="M69.0005,433.7269 C73.0005,433.7269 76.0005,433.7269 80.0005,429.7269 C88.0005,429.7269 96.0005,437.7269 96.0005,445.7269 L96.0005,449.7269 C96.0005,453.7269 92.0005,457.7269 88.0005,457.7269 L50.0005,457.7269 C46.0005,457.7269 42.0005,453.7269 42.0005,449.7269 L42.0005,445.7269 C42.0005,437.7269 50.0005,429.7269 58.0005,429.7269 C62.0005,433.7269 65.0005,433.7269 69.0005,433.7269" style="stroke:#181818;stroke-width:0.5;" fill="#F1F1F1"/><text x="6" y="470.2938" fill="#000000" font-size="13" lengthAdjust="spacing" textLength="126.001" font-weight="700" font-family="Arial">University Admin</text></g><!--entity SuperAdmin--><g class="entity" data-qualified-name="SuperAdmin" id="ent0004" data-source-line="21"><ellipse cx="69.0004" cy="524.7269" rx="16" ry="16" fill="#F1F1F1" style="stroke:#181818;stroke-width:0.5;"/><path d="M69.0004,544.7269 C73.0004,544.7269 76.0004,544.7269 80.0004,540.7269 C88.0004,540.7269 96.0004,548.7269 96.0004,556.7269 L96.0004,560.7269 C96.0004,564.7269 92.0004,568.7269 88.0004,568.7269 L50.0004,568.7269 C46.0004,568.7269 42.0004,564.7269 42.0004,560.7269 L42.0004,556.7269 C42.0004,548.7269 50.0004,540.7269 58.0004,540.7269 C62.0004,544.7269 65.0004,544.7269 69.0004,544.7269" style="stroke:#181818;stroke-width:0.5;" fill="#F1F1F1"/><text x="21.85" y="581.2938" fill="#000000" font-size="13" lengthAdjust="spacing" textLength="94.3008" font-weight="700" font-family="Arial">Super Admin</text></g><!--link Student to UC19--><g class="link" data-entity-1="ent0001" data-entity-2="ent0006" id="lnk14" data-source-line="34" data-link-type="dependency"><path d="M98.46,349.5469 C114.76,363.9969 132,379.2969 132,379.2969 C132,379.2969 168,436.2969 168,436.2969 C168,436.2969 201.3797,446.5409 234.7697,456.7809" style="stroke:#181818;stroke-width:1;" fill="none" id="Student-to-UC19"/><polygon points="239.55,458.2469,232.1183,451.7839,234.7697,456.7809,229.7727,459.4323,239.55,458.2469" fill="#181818" style="stroke:#181818;stroke-width:1;stroke-linejoin:miter;stroke-miterlimit:10;"/></g><!--link Student to UC20--><g class="link" data-entity-1="ent0001" data-entity-2="ent0007" id="lnk15" data-source-line="35" data-link-type="dependency"><path d="M98.58,324.1669 C127.86,324.0369 169.6001,323.8395 209.4001,323.6595" style="stroke:#181818;stroke-width:1;" fill="none" id="Student-to-UC20"/><polygon points="214.4,323.6369,205.382,319.6776,209.4001,323.6595,205.4182,327.6775,214.4,323.6369" fill="#181818" style="stroke:#181818;stroke-width:1;stroke-linejoin:miter;stroke-miterlimit:10;"/></g><!--link Student to UC21--><g class="link" data-entity-1="ent0001" data-entity-2="ent0008" id="lnk16" data-source-line="36" data-link-type="dependency"><path d="M98.61,334.2269 C127.54,344.2569 168,358.2969 168,358.2969 C168,358.2969 196.2823,367.4493 227.7823,377.6293" style="stroke:#181818;stroke-width:1;" fill="none" id="Student-to-UC21"/><polygon points="232.54,379.1669,225.2062,372.5931,227.7823,377.6293,222.7461,380.2054,232.54,379.1669" fill="#181818" style="stroke:#181818;stroke-width:1;stroke-linejoin:miter;stroke-miterlimit:10;"/></g><!--link Student to UC22--><g class="link" data-entity-1="ent0001" data-entity-2="ent0009" id="lnk17" data-source-line="37" data-link-type="dependency"><path d="M98.46,349.5469 C114.76,363.9969 132,379.2969 132,379.2969 C132,379.2969 168,509.2969 168,509.2969 C168,509.2969 200.8502,519.3693 234.0702,529.5693" style="stroke:#181818;stroke-width:1;" fill="none" id="Student-to-UC22"/><polygon points="238.85,531.0369,231.4205,524.5714,234.0702,529.5693,229.0723,532.219,238.85,531.0369" fill="#181818" style="stroke:#181818;stroke-width:1;stroke-linejoin:miter;stroke-miterlimit:10;"/></g><!--link Student to UC23--><g class="link" data-entity-1="ent0001" data-entity-2="ent0010" id="lnk18" data-source-line="38" data-link-type="dependency"><path d="M98.46,349.5469 C114.76,363.9969 132,379.2969 132,379.2969 C132,379.2969 168,582.2969 168,582.2969 C168,582.2969 200.839,592.0962 234.059,602.0162" style="stroke:#181818;stroke-width:1;" fill="none" id="Student-to-UC23"/><polygon points="238.85,603.4469,231.3708,597.0389,234.059,602.0162,229.0818,604.7045,238.85,603.4469" fill="#181818" style="stroke:#181818;stroke-width:1;stroke-linejoin:miter;stroke-miterlimit:10;"/></g><!--link Student to UC24--><g class="link" data-entity-1="ent0001" data-entity-2="ent0011" id="lnk19" data-source-line="39" data-link-type="dependency"><path d="M98.61,313.7869 C127.54,303.1569 168,288.2969 168,288.2969 C168,288.2969 201.1089,278.417 234.4089,268.477" style="stroke:#181818;stroke-width:1;" fill="none" id="Student-to-UC24"/><polygon points="239.2,267.0469,229.4319,265.7882,234.4089,268.477,231.7201,273.454,239.2,267.0469" fill="#181818" style="stroke:#181818;stroke-width:1;stroke-linejoin:miter;stroke-miterlimit:10;"/></g><!--link Student to UC25--><g class="link" data-entity-1="ent0001" data-entity-2="ent0012" id="lnk20" data-source-line="40" data-link-type="dependency"><path d="M98.46,299.0469 C114.76,284.5969 132,269.2969 132,269.2969 C132,269.2969 168,216.2969 168,216.2969 C168,216.2969 197.7824,206.6648 229.8924,196.2848" style="stroke:#181818;stroke-width:1;" fill="none" id="Student-to-UC25"/><polygon points="234.65,194.7469,224.856,193.7091,229.8924,196.2848,227.3167,201.3213,234.65,194.7469" fill="#181818" style="stroke:#181818;stroke-width:1;stroke-linejoin:miter;stroke-miterlimit:10;"/></g><!--link Supervisor to UC20--><g class="link" data-entity-1="ent0002" data-entity-2="ent0007" id="lnk21" data-source-line="41" data-link-type="dependency"><path d="M109.01,243.1569 C136.34,264.0669 168,288.2969 168,288.2969 C168,288.2969 202.6984,298.3624 236.4784,308.1724" style="stroke:#181818;stroke-width:1;" fill="none" id="Supervisor-to-UC20"/><polygon points="241.28,309.5669,233.7526,303.2156,236.4784,308.1724,231.5215,310.8982,241.28,309.5669" fill="#181818" style="stroke:#181818;stroke-width:1;stroke-linejoin:miter;stroke-miterlimit:10;"/></g><!--link Supervisor to UC21--><g class="link" data-entity-1="ent0002" data-entity-2="ent0008" id="lnk22" data-source-line="42" data-link-type="dependency"><path d="M108.91,247.8169 C121.37,258.8669 132,268.2969 132,268.2969 C132,268.2969 168,358.2969 168,358.2969 C168,358.2969 196.2823,367.4493 227.7823,377.6293" style="stroke:#181818;stroke-width:1;" fill="none" id="Supervisor-to-UC21"/><polygon points="232.54,379.1669,225.2062,372.5931,227.7823,377.6293,222.7461,380.2054,232.54,379.1669" fill="#181818" style="stroke:#181818;stroke-width:1;stroke-linejoin:miter;stroke-miterlimit:10;"/></g><!--link Supervisor to UC24--><g class="link" data-entity-1="ent0002" data-entity-2="ent0011" id="lnk23" data-source-line="43" data-link-type="dependency"><path d="M108.83,220.2269 C140.98,225.9569 182.3777,233.3491 219.9477,240.0491" style="stroke:#181818;stroke-width:1;" fill="none" id="Supervisor-to-UC24"/><polygon points="224.87,240.9269,216.712,235.4089,219.9477,240.0491,215.3075,243.2847,224.87,240.9269" fill="#181818" style="stroke:#181818;stroke-width:1;stroke-linejoin:miter;stroke-miterlimit:10;"/></g><!--link Supervisor to UC25--><g class="link" data-entity-1="ent0002" data-entity-2="ent0012" id="lnk24" data-source-line="44" data-link-type="dependency"><path d="M108.83,206.9069 C137.79,202.1369 173.3063,196.2782 208.5163,190.4882" style="stroke:#181818;stroke-width:1;" fill="none" id="Supervisor-to-UC25"/><polygon points="213.45,189.6769,203.9202,187.1902,208.5163,190.4882,205.2183,195.0842,213.45,189.6769" fill="#181818" style="stroke:#181818;stroke-width:1;stroke-linejoin:miter;stroke-miterlimit:10;"/></g><!--link Supervisor to UC26--><g class="link" data-entity-1="ent0002" data-entity-2="ent0013" id="lnk25" data-source-line="45" data-link-type="dependency"><path d="M109.01,183.4369 C136.34,162.5269 168,138.2969 168,138.2969 C168,138.2969 197.2714,129.0802 229.1814,119.0202" style="stroke:#181818;stroke-width:1;" fill="none" id="Supervisor-to-UC26"/><polygon points="233.95,117.5169,224.1638,116.408,229.1814,119.0202,226.5692,124.0378,233.95,117.5169" fill="#181818" style="stroke:#181818;stroke-width:1;stroke-linejoin:miter;stroke-miterlimit:10;"/></g><!--link Admin to UC19--><g class="link" data-entity-1="ent0003" data-entity-2="ent0006" id="lnk26" data-source-line="46" data-link-type="dependency"><path d="M132.35,446.1369 C161,451.1169 190.0339,456.1604 218.9639,461.1904" style="stroke:#181818;stroke-width:1;" fill="none" id="Admin-to-UC19"/><polygon points="223.89,462.0469,215.7082,456.5643,218.9639,461.1904,214.3378,464.4461,223.89,462.0469" fill="#181818" style="stroke:#181818;stroke-width:1;stroke-linejoin:miter;stroke-miterlimit:10;"/></g><!--link Admin to UC20--><g class="link" data-entity-1="ent0003" data-entity-2="ent0007" id="lnk27" data-source-line="47" data-link-type="dependency"><path d="M119,396.7969 C143.5,377.5469 168,358.2969 168,358.2969 C168,358.2969 202.6984,348.2313 236.4784,338.4213" style="stroke:#181818;stroke-width:1;" fill="none" id="Admin-to-UC20"/><polygon points="241.28,337.0269,231.5215,335.6956,236.4784,338.4213,233.7526,343.3781,241.28,337.0269" fill="#181818" style="stroke:#181818;stroke-width:1;stroke-linejoin:miter;stroke-miterlimit:10;"/></g><!--link Admin to UC21--><g class="link" data-entity-1="ent0003" data-entity-2="ent0008" id="lnk28" data-source-line="48" data-link-type="dependency"><path d="M132.35,424.4569 C156.96,420.1769 180.5639,416.0731 206.4539,411.5731" style="stroke:#181818;stroke-width:1;" fill="none" id="Admin-to-UC21"/><polygon points="211.38,410.7169,201.828,408.3172,206.4539,411.5731,203.1979,416.199,211.38,410.7169" fill="#181818" style="stroke:#181818;stroke-width:1;stroke-linejoin:miter;stroke-miterlimit:10;"/></g><!--link Admin to UC22--><g class="link" data-entity-1="ent0003" data-entity-2="ent0009" id="lnk29" data-source-line="49" data-link-type="dependency"><path d="M121.01,473.8169 C144.82,491.7969 168,509.2969 168,509.2969 C168,509.2969 200.8502,519.3693 234.0702,529.5693" style="stroke:#181818;stroke-width:1;" fill="none" id="Admin-to-UC22"/><polygon points="238.85,531.0369,231.4205,524.5714,234.0702,529.5693,229.0723,532.219,238.85,531.0369" fill="#181818" style="stroke:#181818;stroke-width:1;stroke-linejoin:miter;stroke-miterlimit:10;"/></g><!--link Admin to UC23--><g class="link" data-entity-1="ent0003" data-entity-2="ent0010" id="lnk30" data-source-line="50" data-link-type="dependency"><path d="M113.4,473.7969 C123.82,483.0369 132,490.2969 132,490.2969 C132,490.2969 168,582.2969 168,582.2969 C168,582.2969 200.839,592.0962 234.059,602.0162" style="stroke:#181818;stroke-width:1;" fill="none" id="Admin-to-UC23"/><polygon points="238.85,603.4469,231.3708,597.0389,234.059,602.0162,229.0818,604.7045,238.85,603.4469" fill="#181818" style="stroke:#181818;stroke-width:1;stroke-linejoin:miter;stroke-miterlimit:10;"/></g><!--link Admin to UC24--><g class="link" data-entity-1="ent0003" data-entity-2="ent0011" id="lnk31" data-source-line="51" data-link-type="dependency"><path d="M113.4,396.7969 C123.82,387.5569 132,380.2969 132,380.2969 C132,380.2969 168,288.2969 168,288.2969 C168,288.2969 201.1089,278.417 234.4089,268.477" style="stroke:#181818;stroke-width:1;" fill="none" id="Admin-to-UC24"/><polygon points="239.2,267.0469,229.4319,265.7882,234.4089,268.477,231.7201,273.454,239.2,267.0469" fill="#181818" style="stroke:#181818;stroke-width:1;stroke-linejoin:miter;stroke-miterlimit:10;"/></g><!--link Admin to UC25--><g class="link" data-entity-1="ent0003" data-entity-2="ent0012" id="lnk32" data-source-line="52" data-link-type="dependency"><path d="M113.4,396.7969 C123.82,387.5569 132,380.2969 132,380.2969 C132,380.2969 168,216.2969 168,216.2969 C168,216.2969 197.7824,206.6648 229.8924,196.2848" style="stroke:#181818;stroke-width:1;" fill="none" id="Admin-to-UC25"/><polygon points="234.65,194.7469,224.856,193.7091,229.8924,196.2848,227.3167,201.3213,234.65,194.7469" fill="#181818" style="stroke:#181818;stroke-width:1;stroke-linejoin:miter;stroke-miterlimit:10;"/></g><!--link SuperAdmin to UC20--><g class="link" data-entity-1="ent0004" data-entity-2="ent0007" id="lnk33" data-source-line="53" data-link-type="dependency"><path d="M113.4,507.7969 C123.82,498.5569 132,491.2969 132,491.2969 C132,491.2969 168,358.2969 168,358.2969 C168,358.2969 202.6984,348.2313 236.4784,338.4213" style="stroke:#181818;stroke-width:1;" fill="none" id="SuperAdmin-to-UC20"/><polygon points="241.28,337.0269,231.5215,335.6956,236.4784,338.4213,233.7526,343.3781,241.28,337.0269" fill="#181818" style="stroke:#181818;stroke-width:1;stroke-linejoin:miter;stroke-miterlimit:10;"/></g><!--link SuperAdmin to UC21--><g class="link" data-entity-1="ent0004" data-entity-2="ent0008" id="lnk34" data-source-line="54" data-link-type="dependency"><path d="M113.4,507.7969 C123.82,498.5569 132,491.2969 132,491.2969 C132,491.2969 168,437.2969 168,437.2969 C168,437.2969 197.0442,427.6609 228.8542,417.1109" style="stroke:#181818;stroke-width:1;" fill="none" id="SuperAdmin-to-UC21"/><polygon points="233.6,415.5369,223.7984,414.5734,228.8542,417.1109,226.3167,422.1667,233.6,415.5369" fill="#181818" style="stroke:#181818;stroke-width:1;stroke-linejoin:miter;stroke-miterlimit:10;"/></g><!--link SuperAdmin to UC22--><g class="link" data-entity-1="ent0004" data-entity-2="ent0009" id="lnk35" data-source-line="55" data-link-type="dependency"><path d="M116.63,546.2969 C142.84,546.2969 171.3,546.2969 201.74,546.2969" style="stroke:#181818;stroke-width:1;" fill="none" id="SuperAdmin-to-UC22"/><polygon points="206.74,546.2969,197.74,542.2969,201.74,546.2969,197.74,550.2969,206.74,546.2969" fill="#181818" style="stroke:#181818;stroke-width:1;stroke-linejoin:miter;stroke-miterlimit:10;"/></g><!--link SuperAdmin to UC23--><g class="link" data-entity-1="ent0004" data-entity-2="ent0010" id="lnk36" data-source-line="56" data-link-type="dependency"><path d="M116.42,563.3469 C141.75,572.6569 168,582.2969 168,582.2969 C168,582.2969 200.839,592.0962 234.059,602.0162" style="stroke:#181818;stroke-width:1;" fill="none" id="SuperAdmin-to-UC23"/><polygon points="238.85,603.4469,231.3708,597.0389,234.059,602.0162,229.0818,604.7045,238.85,603.4469" fill="#181818" style="stroke:#181818;stroke-width:1;stroke-linejoin:miter;stroke-miterlimit:10;"/></g><?plantuml-src RP9DRkCm38NtFWNXhWDKjXDCDmEaIRngYm21Pw-965UjB1cId20T3327w0bxaf5_QolU-Jr-9YcI0ayMh0BDyrSBZ6iyMgvaODwvBAcc1PXNojI5onnEL1WSHGINQAybGgd4jHQZ63rQfG_sAX3e1Oqgna669re9coffNsY1iDQSYb6yCdYa1k5F0F18Z--vLfLa6oMKXhlTBatIj8uepL1tBjack-qFvzP93_m3WSJ1Nx-X9kEOw5JJvsybcFibiDmwbUttpmVu-lS9UwtUt5JWcKgQOu7I1a6RxM0hLijELINgCpTATqQOINv6RRYzmfeLN8P0JVlL4yq_es2ZMoAeLq5bxde9csR2flj-Dc6sMP07s6Ya5liUcnpPXZnuO7GFJzpO7ZCT5ztx785V72_3axTeAHS3JdmyWgnaj_MZo0TZbqhWBHZxO38qa6iqG-N4vvOjjtRNUgxdcoAo7bxwy0gUa9vns90xy9vTrHllzWYBnSzsUbF3ZSapY6z4lX7xHk8Ro-3xO4Q5RZmouoKptbo-LT3SqlV3nj9LcqWobT5KnbEPJ6LNt4j_wv4PBvhnuly0?></g></svg>