<svg xmlns="http://www.w3.org/2000/svg" xmlns:xlink="http://www.w3.org/1999/xlink" version="1.1" data-diagram-type="DESCRIPTION" style="width:424px;height:465px;background:#FFFFFF;" width="424px" height="465px" viewBox="0 0 424 465" zoomAndPan="magnify" preserveAspectRatio="none" contentStyleType="text/css"><?plantuml 1.2026.7beta3?><defs/><g><g class="title" data-source-line="16"><text x="118.3683" y="22.9951" fill="#000000" font-size="14" lengthAdjust="spacing" textLength="180.5234" font-weight="700" font-family="Arial">UPPMS — Notifications</text></g><!--cluster UPPMS--><g class="cluster" data-qualified-name="UPPMS" id="ent0005" data-source-line="23"><rect x="176" y="150.8569" width="234.26" height="173" fill="none" style="stroke:#181818;stroke-width:1;" rx="2.5" ry="2.5"/><text x="265.1779" y="165.852" fill="#000000" font-size="14" lengthAdjust="spacing" textLength="55.9043" font-weight="700" font-family="Arial">UPPMS</text></g><!--entity UC45--><g class="entity" data-qualified-name="UPPMS.UC45" id="ent0006" data-source-line="24"><ellipse cx="293.1309" cy="286.8591" rx="91.7609" ry="20.7522" fill="#EEF4FF" style="stroke:#1D4ED8;stroke-width:0.5;"/><text x="212.8362" y="290.9255" fill="#000000" font-size="13" lengthAdjust="spacing" textLength="160.5894" font-family="Arial">UC-45 View Notifications</text></g><!--entity UC46--><g class="entity" data-qualified-name="UPPMS.UC46" id="ent0007" data-source-line="25"><ellipse cx="293.1319" cy="208.8533" rx="101.1319" ry="22.6264" fill="#EEF4FF" style="stroke:#1D4ED8;stroke-width:0.5;"/><text x="202.5857" y="212.9197" fill="#000000" font-size="13" lengthAdjust="spacing" textLength="181.0923" font-family="Arial">UC-46 Manage Notifications</text></g><!--entity Student--><g class="entity" data-qualified-name="Student" id="ent0001" data-source-line="18"><ellipse cx="69.0019" cy="59.2969" rx="16" ry="16" fill="#F1F1F1" style="stroke:#181818;stroke-width:0.5;"/><path d="M69.0019,79.2969 C73.0019,79.2969 76.0019,79.2969 80.0019,75.2969 C88.0019,75.2969 96.0019,83.2969 96.0019,91.2969 L96.0019,95.2969 C96.0019,99.2969 92.0019,103.2969 88.0019,103.2969 L50.0019,103.2969 C46.0019,103.2969 42.0019,99.2969 42.0019,95.2969 L42.0019,91.2969 C42.0019,83.2969 50.0019,75.2969 58.0019,75.2969 C62.0019,79.2969 65.0019,79.2969 69.0019,79.2969" style="stroke:#181818;stroke-width:0.5;" fill="#F1F1F1"/><text x="39.79" y="115.8638" fill="#000000" font-size="13" lengthAdjust="spacing" textLength="58.4238" font-weight="700" font-family="Arial">Student</text></g><!--entity Supervisor--><g class="entity" data-qualified-name="Supervisor" id="ent0002" data-source-line="19"><ellipse cx="69.0008" cy="170.2969" rx="16" ry="16" fill="#F1F1F1" style="stroke:#181818;stroke-width:0.5;"/><path d="M69.0008,190.2969 C73.0008,190.2969 76.0008,190.2969 80.0008,186.2969 C88.0008,186.2969 96.0008,194.2969 96.0008,202.2969 L96.0008,206.2969 C96.0008,210.2969 92.0008,214.2969 88.0008,214.2969 L50.0008,214.2969 C46.0008,214.2969 42.0008,210.2969 42.0008,206.2969 L42.0008,202.2969 C42.0008,194.2969 50.0008,186.2969 58.0008,186.2969 C62.0008,190.2969 65.0008,190.2969 69.0008,190.2969" style="stroke:#181818;stroke-width:0.5;" fill="#F1F1F1"/><text x="29.42" y="226.8638" fill="#000000" font-size="13" lengthAdjust="spacing" textLength="79.1616" font-weight="700" font-family="Arial">Supervisor</text></g><!--entity Admin--><g class="entity" data-qualified-name="Admin" id="ent0003" data-source-line="20"><ellipse cx="69.0005" cy="281.2969" rx="16" ry="16" fill="#F1F1F1" style="stroke:#181818;stroke-width:0.5;"/><path d="M69.0005,301.2969 C73.0005,301.2969 76.0005,301.2969 80.0005,297.2969 C88.0005,297.2969 96.0005,305.2969 96.0005,313.2969 L96.0005,317.2969 C96.0005,321.2969 92.0005,325.2969 88.0005,325.2969 L50.0005,325.2969 C46.0005,325.2969 42.0005,321.2969 42.0005,317.2969 L42.0005,313.2969 C42.0005,305.2969 50.0005,297.2969 58.0005,297.2969 C62.0005,301.2969 65.0005,301.2969 69.0005,301.2969" style="stroke:#181818;stroke-width:0.5;" fill="#F1F1F1"/><text x="6" y="337.8638" fill="#000000" font-size="13" lengthAdjust="spacing" textLength="126.001" font-weight="700" font-family="Arial">University Admin</text></g><!--entity SuperAdmin--><g class="entity" data-qualified-name="SuperAdmin" id="ent0004" data-source-line="21"><ellipse cx="69.0004" cy="392.2969" rx="16" ry="16" fill="#F1F1F1" style="stroke:#181818;stroke-width:0.5;"/><path d="M69.0004,412.2969 C73.0004,412.2969 76.0004,412.2969 80.0004,408.2969 C88.0004,408.2969 96.0004,416.2969 96.0004,424.2969 L96.0004,428.2969 C96.0004,432.2969 92.0004,436.2969 88.0004,436.2969 L50.0004,436.2969 C46.0004,436.2969 42.0004,432.2969 42.0004,428.2969 L42.0004,424.2969 C42.0004,416.2969 50.0004,408.2969 58.0004,408.2969 C62.0004,412.2969 65.0004,412.2969 69.0004,412.2969" style="stroke:#181818;stroke-width:0.5;" fill="#F1F1F1"/><text x="21.85" y="448.8638" fill="#000000" font-size="13" lengthAdjust="spacing" textLength="94.3008" font-weight="700" font-family="Arial">Super Admin</text></g><!--link Student to UC45--><g class="link" data-entity-1="ent0001" data-entity-2="ent0006" id="lnk8" data-source-line="28" data-link-type="dependency"><path d="M98.46,106.1069 C114.76,120.5669 132,135.8569 132,135.8569 C132,135.8569 168,248.8569 168,248.8569 C168,248.8569 199.2889,258.4435 232.5489,268.6235" style="stroke:#181818;stroke-width:1;" fill="none" id="Student-to-UC45"/><polygon points="237.33,270.0869,229.8948,263.628,232.5489,268.6235,227.5534,271.2777,237.33,270.0869" fill="#181818" style="stroke:#181818;stroke-width:1;stroke-linejoin:miter;stroke-miterlimit:10;"/></g><!--link Student to UC46--><g class="link" data-entity-1="ent0001" data-entity-2="ent0007" id="lnk9" data-source-line="29" data-link-type="dependency"><path d="M98.59,97.3369 C138.54,120.3569 206.7977,159.6906 250.8277,185.0606" style="stroke:#181818;stroke-width:1;" fill="none" id="Student-to-UC46"/><polygon points="255.16,187.5569,249.3589,179.5978,250.8277,185.0606,245.3649,186.5294,255.16,187.5569" fill="#181818" style="stroke:#181818;stroke-width:1;stroke-linejoin:miter;stroke-miterlimit:10;"/></g><!--link Supervisor to UC45--><g class="link" data-entity-1="ent0002" data-entity-2="ent0006" id="lnk10" data-source-line="30" data-link-type="dependency"><path d="M109.01,214.5569 C136.34,230.4469 168,248.8569 168,248.8569 C168,248.8569 199.2889,258.4435 232.5489,268.6235" style="stroke:#181818;stroke-width:1;" fill="none" id="Supervisor-to-UC45"/><polygon points="237.33,270.0869,229.8948,263.628,232.5489,268.6235,227.5534,271.2777,237.33,270.0869" fill="#181818" style="stroke:#181818;stroke-width:1;stroke-linejoin:miter;stroke-miterlimit:10;"/></g><!--link Supervisor to UC46--><g class="link" data-entity-1="ent0002" data-entity-2="ent0007" id="lnk11" data-source-line="31" data-link-type="dependency"><path d="M108.95,194.8369 C133.33,196.7069 160.9146,198.8145 191.8146,201.1845" style="stroke:#181818;stroke-width:1;" fill="none" id="Supervisor-to-UC46"/><polygon points="196.8,201.5669,188.1323,196.8903,191.8146,201.1845,187.5205,204.8669,196.8,201.5669" fill="#181818" style="stroke:#181818;stroke-width:1;stroke-linejoin:miter;stroke-miterlimit:10;"/></g><!--link Admin to UC45--><g class="link" data-entity-1="ent0003" data-entity-2="ent0006" id="lnk12" data-source-line="32" data-link-type="dependency"><path d="M132.47,298.3569 C155.05,296.7369 175.9929,295.226 200.2929,293.476" style="stroke:#181818;stroke-width:1;" fill="none" id="Admin-to-UC45"/><polygon points="205.28,293.1169,196.0159,289.7737,200.2929,293.476,196.5906,297.753,205.28,293.1169" fill="#181818" style="stroke:#181818;stroke-width:1;stroke-linejoin:miter;stroke-miterlimit:10;"/></g><!--link Admin to UC46--><g class="link" data-entity-1="ent0003" data-entity-2="ent0007" id="lnk13" data-source-line="33" data-link-type="dependency"><path d="M132.34,268.5069 C151.67,257.8569 168,248.8569 168,248.8569 C168,248.8569 197.0011,239.5206 229.3011,229.1106" style="stroke:#181818;stroke-width:1;" fill="none" id="Admin-to-UC46"/><polygon points="234.06,227.5769,224.2669,226.5305,229.3011,229.1106,226.7209,234.1448,234.06,227.5769" fill="#181818" style="stroke:#181818;stroke-width:1;stroke-linejoin:miter;stroke-miterlimit:10;"/></g><!--link SuperAdmin to UC45--><g class="link" data-entity-1="ent0004" data-entity-2="ent0006" id="lnk14" data-source-line="34" data-link-type="dependency"><path d="M116.57,387.2369 C158.8,363.0869 215.7496,330.5389 253.6096,308.8889" style="stroke:#181818;stroke-width:1;" fill="none" id="SuperAdmin-to-UC45"/><polygon points="257.95,306.4069,248.1516,307.4022,253.6096,308.8889,252.1229,314.3469,257.95,306.4069" fill="#181818" style="stroke:#181818;stroke-width:1;stroke-linejoin:miter;stroke-miterlimit:10;"/></g><!--link SuperAdmin to UC46--><g class="link" data-entity-1="ent0004" data-entity-2="ent0007" id="lnk15" data-source-line="35" data-link-type="dependency"><path d="M113.4,375.3669 C123.82,366.1169 132,358.8569 132,358.8569 C132,358.8569 168,248.8569 168,248.8569 C168,248.8569 197.0011,239.5206 229.3011,229.1106" style="stroke:#181818;stroke-width:1;" fill="none" id="SuperAdmin-to-UC46"/><polygon points="234.06,227.5769,224.2669,226.5305,229.3011,229.1106,226.7209,234.1448,234.06,227.5769" fill="#181818" style="stroke:#181818;stroke-width:1;stroke-linejoin:miter;stroke-miterlimit:10;"/></g><?plantuml-src RL5BRi8m4Dtx5ADqpG8rH5rLea1s8AGetK_Z8OnmxCXsG6bLgOVe2NkIveT8GtT-dtbwCrPqyE0DMCwF7YHRoZmRBTo9TOaM2t17bER2EeS3AaSZHR4cNvS4fL5r2qOQPjxOnDUA02_aJ34M9HsmKZussk-m85XQHZNIAqSPEe8F0V22sIctfj9oPPInyB3Pn64Sjugnakp0pjVXPltKi6remky4yqVnEItK9OuT0-fwlXabcn7XsJSetU-t2VnyVSFEU3vmXkrTd11zKE8hITfVKLMIFRCpTY22LFEPh6DVmr8Mh0D0rx-kZcvc97QuTuZs5r3dJOsWwn5qnQzd2TBLB5p0AzFbRxak9rs5YwavWYrgpEb_UzHkFIm4izbp7p4X8d5RScIwuoBHxN2p_853oiHopqM_?></g></svg>