<svg xmlns="http://www.w3.org/2000/svg" xmlns:xlink="http://www.w3.org/1999/xlink" version="1.1" data-diagram-type="DESCRIPTION" style="width:420px;height:398px;background:#FFFFFF;" width="420px" height="398px" viewBox="0 0 420 398" zoomAndPan="magnify" preserveAspectRatio="none" contentStyleType="text/css"><?plantuml 1.2026.7beta3?><defs/><g><g class="title" data-source-line="16"><text x="71.3807" y="22.9951" fill="#000000" font-size="14" lengthAdjust="spacing" textLength="270.3887" font-weight="700" font-family="Arial">UPPMS — Platform Administration</text></g><!--cluster UPPMS--><g class="cluster" data-qualified-name="UPPMS" id="ent0002" data-source-line="20"><rect x="144.3" y="44.2969" width="261.85" height="340" fill="none" style="stroke:#181818;stroke-width:1;" rx="2.5" ry="2.5"/><text x="247.2729" y="59.292" fill="#000000" font-size="14" lengthAdjust="spacing" textLength="55.9043" font-weight="700" font-family="Arial">UPPMS</text></g><!--entity UC57--><g class="entity" data-qualified-name="UPPMS.UC57" id="ent0003" data-source-line="21"><ellipse cx="275.2253" cy="346.2939" rx="98.7853" ry="22.1571" fill="#EEF4FF" style="stroke:#1D4ED8;stroke-width:0.5;"/><text x="187.2278" y="350.3604" fill="#000000" font-size="13" lengthAdjust="spacing" textLength="175.9951" font-family="Arial">UC-57 Manage Universities</text></g><!--entity UC58--><g class="entity" data-qualified-name="UPPMS.UC58" id="ent0004" data-source-line="22"><ellipse cx="275.2305" cy="265.293" rx="107.7305" ry="23.9461" fill="#EEF4FF" style="stroke:#1D4ED8;stroke-width:0.5;"/><text x="177.5718" y="269.3594" fill="#000000" font-size="13" lengthAdjust="spacing" textLength="195.3174" font-family="Arial">UC-58 Manage Platform Users</text></g><!--entity UC59--><g class="entity" data-qualified-name="UPPMS.UC59" id="ent0005" data-source-line="23"><ellipse cx="275.227" cy="181.2923" rx="114.927" ry="25.3854" fill="#EEF4FF" style="stroke:#1D4ED8;stroke-width:0.5;"/><text x="169.8876" y="185.3587" fill="#000000" font-size="13" lengthAdjust="spacing" textLength="210.6787" font-family="Arial">UC-59 Manage Platform Projects</text></g><!--entity UC60--><g class="entity" data-qualified-name="UPPMS.UC60" id="ent0006" data-source-line="24"><ellipse cx="275.2277" cy="100.2984" rx="92.6577" ry="20.9315" fill="#EEF4FF" style="stroke:#1D4ED8;stroke-width:0.5;"/><text x="193.9428" y="104.3648" fill="#000000" font-size="13" lengthAdjust="spacing" textLength="162.5698" font-family="Arial">UC-60 Platform Statistics</text></g><!--entity SuperAdmin--><g class="entity" data-qualified-name="SuperAdmin" id="ent0001" data-source-line="18"><ellipse cx="53.1504" cy="201.7269" rx="16" ry="16" fill="#F1F1F1" style="stroke:#181818;stroke-width:0.5;"/><path d="M53.1504,221.7269 C57.1504,221.7269 60.1504,221.7269 64.1504,217.7269 C72.1504,217.7269 80.1504,225.7269 80.1504,233.7269 L80.1504,237.7269 C80.1504,241.7269 76.1504,245.7269 72.1504,245.7269 L34.1504,245.7269 C30.1504,245.7269 26.1504,241.7269 26.1504,237.7269 L26.1504,233.7269 C26.1504,225.7269 34.1504,217.7269 42.1504,217.7269 C46.1504,221.7269 49.1504,221.7269 53.1504,221.7269" style="stroke:#181818;stroke-width:0.5;" fill="#F1F1F1"/><text x="6" y="258.2938" fill="#000000" font-size="13" lengthAdjust="spacing" textLength="94.3008" font-weight="700" font-family="Arial">Super Admin</text></g><!--link SuperAdmin to UC57--><g class="link" data-entity-1="ent0001" data-entity-2="ent0003" id="lnk7" data-source-line="27" data-link-type="dependency"><path d="M91.86,261.3969 C113.46,283.2169 136.3,306.2969 136.3,306.2969 C136.3,306.2969 171.578,316.5237 208.528,327.2437" style="stroke:#181818;stroke-width:1;" fill="none" id="SuperAdmin-to-UC57"/><polygon points="213.33,328.6369,205.8009,322.2876,208.528,327.2437,203.5719,329.9708,213.33,328.6369" fill="#181818" style="stroke:#181818;stroke-width:1;stroke-linejoin:miter;stroke-miterlimit:10;"/></g><!--link SuperAdmin to UC58--><g class="link" data-entity-1="ent0001" data-entity-2="ent0004" id="lnk8" data-source-line="28" data-link-type="dependency"><path d="M100.55,232.1569 C127.16,237.2269 156.4286,242.8199 187.4086,248.7299" style="stroke:#181818;stroke-width:1;" fill="none" id="SuperAdmin-to-UC58"/><polygon points="192.32,249.6669,184.229,244.0512,187.4086,248.7299,182.7299,251.9095,192.32,249.6669" fill="#181818" style="stroke:#181818;stroke-width:1;stroke-linejoin:miter;stroke-miterlimit:10;"/></g><!--link SuperAdmin to UC59--><g class="link" data-entity-1="ent0001" data-entity-2="ent0005" id="lnk9" data-source-line="29" data-link-type="dependency"><path d="M100.55,214.4369 C125.65,209.6469 152.5585,204.5133 182.0885,198.8833" style="stroke:#181818;stroke-width:1;" fill="none" id="SuperAdmin-to-UC59"/><polygon points="187,197.9469,177.4101,195.7032,182.0885,198.8833,178.9084,203.5616,187,197.9469" fill="#181818" style="stroke:#181818;stroke-width:1;stroke-linejoin:miter;stroke-miterlimit:10;"/></g><!--link SuperAdmin to UC60--><g class="link" data-entity-1="ent0001" data-entity-2="ent0006" id="lnk10" data-source-line="30" data-link-type="dependency"><path d="M91.38,184.7769 C113.12,162.2869 136.3,138.2969 136.3,138.2969 C136.3,138.2969 172.7296,128.2651 210.1096,117.9651" style="stroke:#181818;stroke-width:1;" fill="none" id="SuperAdmin-to-UC60"/><polygon points="214.93,116.6369,205.1908,115.1714,210.1096,117.9651,207.316,122.884,214.93,116.6369" fill="#181818" style="stroke:#181818;stroke-width:1;stroke-linejoin:miter;stroke-miterlimit:10;"/></g><?plantuml-src RL3RRe9047tdAoRqsKHJB_ZInAgysP0GFc0A0svTTidkK6ER9ls8Vc6_f0kA4kpZkSoPCoCfPs0DHXHxXamOIbbevTc3K1KQBC7kCTD7eGh8KLhgAL8eubD5K6bvQa1FmvIrYVaa2V18LfTzCQCSQycXLlo29S7A29GzlRQKeYNuz02UCJqKHjSgMskf3Jnij-4q31j5cupCXPrifjjDuDWcD1OV19D7xsjOg4tiEowexVcgPUP6F1RiK195knX-ltyWaiYvDYMiib8eOTbW-oBl7Ed7TKNcBFg05bhSGizhtecgS7b-6-Yt3Rhx_6GzcYrWXmeBjr69Tp9Mi23R1YNhsMBe3ZhtjLLYtL3d3uR-vPq_ClhDjRgEB0SZy_7D6xCxrR98E_Tyt7peTY6CHa_ddlTSy0-tlEVcupy0?></g></svg>