<svg xmlns="http://www.w3.org/2000/svg" xmlns:xlink="http://www.w3.org/1999/xlink" version="1.1" data-diagram-type="DESCRIPTION" style="width:424px;height:465px;background:#FFFFFF;" width="424px" height="465px" viewBox="0 0 424 465" zoomAndPan="magnify" preserveAspectRatio="none" contentStyleType="text/css"><?plantuml 1.2026.7beta3?><defs/><g><g class="title" data-source-line="16"><text x="126.3834" y="22.9951" fill="#000000" font-size="14" lengthAdjust="spacing" textLength="165.0332" font-weight="700" font-family="Arial">UPPMS — Dashboard</text></g><!--cluster UPPMS--><g class="cluster" data-qualified-name="UPPMS" id="ent0005" data-source-line="23"><rect x="176" y="156.8569" width="234.8" height="168" fill="none" style="stroke:#181818;stroke-width:1;" rx="2.5" ry="2.5"/><text x="265.4479" y="171.852" fill="#000000" font-size="14" lengthAdjust="spacing" textLength="55.9043" font-weight="700" font-family="Arial">UPPMS</text></g><!--entity UC61--><g class="entity" data-qualified-name="UPPMS.UC61" id="ent0006" data-source-line="24"><ellipse cx="293.3984" cy="285.8566" rx="101.3984" ry="22.6797" fill="#EEF4FF" style="stroke:#1D4ED8;stroke-width:0.5;"/><text x="202.5635" y="289.923" fill="#000000" font-size="13" lengthAdjust="spacing" textLength="181.6699" font-family="Arial">UC-61 Dashboard Summary</text></g><!--entity UC62--><g class="entity" data-qualified-name="UPPMS.UC62" id="ent0007" data-source-line="25"><ellipse cx="293.3962" cy="209.8601" rx="80.3162" ry="18.4632" fill="#EEF4FF" style="stroke:#1D4ED8;stroke-width:0.5;"/><text x="225.9682" y="213.9265" fill="#000000" font-size="13" lengthAdjust="spacing" textLength="134.856" font-family="Arial">UC-62 Badge Counts</text></g><!--entity Student--><g class="entity" data-qualified-name="Student" id="ent0001" data-source-line="18"><ellipse cx="69.0019" cy="59.2969" rx="16" ry="16" fill="#F1F1F1" style="stroke:#181818;stroke-width:0.5;"/><path d="M69.0019,79.2969 C73.0019,79.2969 76.0019,79.2969 80.0019,75.2969 C88.0019,75.2969 96.0019,83.2969 96.0019,91.2969 L96.0019,95.2969 C96.0019,99.2969 92.0019,103.2969 88.0019,103.2969 L50.0019,103.2969 C46.0019,103.2969 42.0019,99.2969 42.0019,95.2969 L42.0019,91.2969 C42.0019,83.2969 50.0019,75.2969 58.0019,75.2969 C62.0019,79.2969 65.0019,79.2969 69.0019,79.2969" style="stroke:#181818;stroke-width:0.5;" fill="#F1F1F1"/><text x="39.79" y="115.8638" fill="#000000" font-size="13" lengthAdjust="spacing" textLength="58.4238" font-weight="700" font-family="Arial">Student</text></g><!--entity Supervisor--><g class="entity" data-qualified-name="Supervisor" id="ent0002" data-source-line="19"><ellipse cx="69.0008" cy="170.2969" rx="16" ry="16" fill="#F1F1F1" style="stroke:#181818;stroke-width:0.5;"/><path d="M69.0008,190.2969 C73.0008,190.2969 76.0008,190.2969 80.0008,186.2969 C88.0008,186.2969 96.0008,194.2969 96.0008,202.2969 L96.0008,206.2969 C96.0008,210.2969 92.0008,214.2969 88.0008,214.2969 L50.0008,214.2969 C46.0008,214.2969 42.0008,210.2969 42.0008,206.2969 L42.0008,202.2969 C42.0008,194.2969 50.0008,186.2969 58.0008,186.2969 C62.0008,190.2969 65.0008,190.2969 69.0008,190.2969" style="stroke:#181818;stroke-width:0.5;" fill="#F1F1F1"/><text x="29.42" y="226.8638" fill="#000000" font-size="13" lengthAdjust="spacing" textLength="79.1616" font-weight="700" font-family="Arial">Supervisor</text></g><!--entity Admin--><g class="entity" data-qualified-name="Admin" id="ent0003" data-source-line="20"><ellipse cx="69.0005" cy="281.2969" rx="16" ry="16" fill="#F1F1F1" style="stroke:#181818;stroke-width:0.5;"/><path d="M69.0005,301.2969 C73.0005,301.2969 76.0005,301.2969 80.0005,297.2969 C88.0005,297.2969 96.0005,305.2969 96.0005,313.2969 L96.0005,317.2969 C96.0005,321.2969 92.0005,325.2969 88.0005,325.2969 L50.0005,325.2969 C46.0005,325.2969 42.0005,321.2969 42.0005,317.2969 L42.0005,313.2969 C42.0005,305.2969 50.0005,297.2969 58.0005,297.2969 C62.0005,301.2969 65.0005,301.2969 69.0005,301.2969" style="stroke:#181818;stroke-width:0.5;" fill="#F1F1F1"/><text x="6" y="337.8638" fill="#000000" font-size="13" lengthAdjust="spacing" textLength="126.001" font-weight="700" font-family="Arial">University Admin</text></g><!--entity SuperAdmin--><g class="entity" data-qualified-name="SuperAdmin" id="ent0004" data-source-line="21"><ellipse cx="69.0004" cy="392.2969" rx="16" ry="16" fill="#F1F1F1" style="stroke:#181818;stroke-width:0.5;"/><path d="M69.0004,412.2969 C73.0004,412.2969 76.0004,412.2969 80.0004,408.2969 C88.0004,408.2969 96.0004,416.2969 96.0004,424.2969 L96.0004,428.2969 C96.0004,432.2969 92.0004,436.2969 88.0004,436.2969 L50.0004,436.2969 C46.0004,436.2969 42.0004,432.2969 42.0004,428.2969 L42.0004,424.2969 C42.0004,416.2969 50.0004,408.2969 58.0004,408.2969 C62.0004,412.2969 65.0004,412.2969 69.0004,412.2969" style="stroke:#181818;stroke-width:0.5;" fill="#F1F1F1"/><text x="21.85" y="448.8638" fill="#000000" font-size="13" lengthAdjust="spacing" textLength="94.3008" font-weight="700" font-family="Arial">Super Admin</text></g><!--link Student to UC61--><g class="link" data-entity-1="ent0001" data-entity-2="ent0006" id="lnk8" data-source-line="28" data-link-type="dependency"><path d="M98.46,106.1069 C114.76,120.5669 132,135.8569 132,135.8569 C132,135.8569 168,245.8569 168,245.8569 C168,245.8569 197.0699,255.2065 229.4499,265.6165" style="stroke:#181818;stroke-width:1;" fill="none" id="Student-to-UC61"/><polygon points="234.21,267.1469,226.8662,260.5842,229.4499,265.6165,224.4176,268.2003,234.21,267.1469" fill="#181818" style="stroke:#181818;stroke-width:1;stroke-linejoin:miter;stroke-miterlimit:10;"/></g><!--link Student to UC62--><g class="link" data-entity-1="ent0001" data-entity-2="ent0007" id="lnk9" data-source-line="29" data-link-type="dependency"><path d="M98.62,97.4569 C140.85,121.9569 215.1747,165.0685 258.1447,189.9885" style="stroke:#181818;stroke-width:1;" fill="none" id="Student-to-UC62"/><polygon points="262.47,192.4969,256.6912,184.5215,258.1447,189.9885,252.6778,191.442,262.47,192.4969" fill="#181818" style="stroke:#181818;stroke-width:1;stroke-linejoin:miter;stroke-miterlimit:10;"/></g><!--link Supervisor to UC61--><g class="link" data-entity-1="ent0002" data-entity-2="ent0006" id="lnk10" data-source-line="30" data-link-type="dependency"><path d="M109.01,213.3569 C136.34,228.4169 168,245.8569 168,245.8569 C168,245.8569 197.0699,255.2065 229.4499,265.6165" style="stroke:#181818;stroke-width:1;" fill="none" id="Supervisor-to-UC61"/><polygon points="234.21,267.1469,226.8662,260.5842,229.4499,265.6165,224.4176,268.2003,234.21,267.1469" fill="#181818" style="stroke:#181818;stroke-width:1;stroke-linejoin:miter;stroke-miterlimit:10;"/></g><!--link Supervisor to UC62--><g class="link" data-entity-1="ent0002" data-entity-2="ent0007" id="lnk11" data-source-line="31" data-link-type="dependency"><path d="M108.99,195.0169 C138.77,197.4269 175.7264,200.4128 211.9864,203.3528" style="stroke:#181818;stroke-width:1;" fill="none" id="Supervisor-to-UC62"/><polygon points="216.97,203.7569,208.3227,199.0426,211.9864,203.3528,207.6762,207.0164,216.97,203.7569" fill="#181818" style="stroke:#181818;stroke-width:1;stroke-linejoin:miter;stroke-miterlimit:10;"/></g><!--link Admin to UC61--><g class="link" data-entity-1="ent0003" data-entity-2="ent0006" id="lnk12" data-source-line="32" data-link-type="dependency"><path d="M132.25,298.1069 C152.29,296.5669 170.0045,295.2176 191.8745,293.5476" style="stroke:#181818;stroke-width:1;" fill="none" id="Admin-to-UC61"/><polygon points="196.86,293.1669,187.5816,289.8637,191.8745,293.5476,188.1907,297.8405,196.86,293.1669" fill="#181818" style="stroke:#181818;stroke-width:1;stroke-linejoin:miter;stroke-miterlimit:10;"/></g><!--link Admin to UC62--><g class="link" data-entity-1="ent0003" data-entity-2="ent0007" id="lnk13" data-source-line="33" data-link-type="dependency"><path d="M132.34,266.5969 C151.67,255.3569 168,245.8569 168,245.8569 C168,245.8569 202.8371,235.7768 237.3571,225.7868" style="stroke:#181818;stroke-width:1;" fill="none" id="Admin-to-UC62"/><polygon points="242.16,224.3969,232.4028,223.0565,237.3571,225.7868,234.6267,230.7411,242.16,224.3969" fill="#181818" style="stroke:#181818;stroke-width:1;stroke-linejoin:miter;stroke-miterlimit:10;"/></g><!--link SuperAdmin to UC61--><g class="link" data-entity-1="ent0004" data-entity-2="ent0006" id="lnk14" data-source-line="34" data-link-type="dependency"><path d="M116.62,387.0269 C157.89,363.2769 212.9866,331.5713 251.0666,309.6513" style="stroke:#181818;stroke-width:1;" fill="none" id="SuperAdmin-to-UC61"/><polygon points="255.4,307.1569,245.6044,308.1801,251.0666,309.6513,249.5955,315.1135,255.4,307.1569" fill="#181818" style="stroke:#181818;stroke-width:1;stroke-linejoin:miter;stroke-miterlimit:10;"/></g><!--link SuperAdmin to UC62--><g class="link" data-entity-1="ent0004" data-entity-2="ent0007" id="lnk15" data-source-line="35" data-link-type="dependency"><path d="M113.4,375.3669 C123.82,366.1169 132,358.8569 132,358.8569 C132,358.8569 168,245.8569 168,245.8569 C168,245.8569 202.8371,235.7768 237.3571,225.7868" style="stroke:#181818;stroke-width:1;" fill="none" id="SuperAdmin-to-UC62"/><polygon points="242.16,224.3969,232.4028,223.0565,237.3571,225.7868,234.6267,230.7411,242.16,224.3969" fill="#181818" style="stroke:#181818;stroke-width:1;stroke-linejoin:miter;stroke-miterlimit:10;"/></g><?plantuml-src PL5BReCm4Dtx52EwpW8QHLrLIadOjOg4EC04JuWLOoFR9A9LfHwY9-n9QWmebExyFlFqPYpfvC1fCA8wE-32KEc4LinUX6hGO0tsZ5pVXAhWXDBIJ952aUiQWaRBhWSp3KkdJUuwIO0tihgUYvnEs4gNQUNUi2RO6e5ofhUMIhG47mpW1SjBPNIhUAgbDl2mtsVhBEiLRJYPaOrtw_tkoRDzQ2xU2U97zhai51BdZX65daSjkHzXJZYFYiFXDOUVhs_OeJqVDHhEs12IkvQJSXDg6p9NORKPYQXGuah62jV1bjT2HO1sU4sEC3CJ0nuShFy1L9Ml48KEKIWzdIGgqjKcldVoetMDfWinHRg9bzx4Nv1N1Aa_eREJBUaN7VU0rUfv65qG2RllDZFzun8MgjyjV-2Oih3yvv9V?></g></svg>